# xmcd
#
# Track frame offsets:
# 150
# 18113
# 32062
# 48145
# 74474
# 88417
# 105375
# 123282
# 140023
# 155240
# 169416
# 180650
# 196057
# 209808
# 227058
# 244555
# 258772
# 269686
# 283341
# 297245
# 309805
#
# Disc length: 4336 seconds
#
# Revision: 0
# Processed by: cddbd v1.4PL0 Copyright (c) Steve Scherf et al.
# Submitted via: Audion 3.0.2 (http://www.panic.com/audion/)
#
DISCID=3810ee15
DTITLE=Canto del loco - Mezcla
DYEAR=1900
DGENRE=
TTITLE0=Busco la vida
TTITLE1=La chica de ayer
TTITLE2=Contigo
TTITLE3=Crash-Aquellos años locos
TTITLE4=Eres un canalla
TTITLE5=He vuelto a caer
TTITLE6=Llueve en mi
TTITLE7=No quiero nada
TTITLE8=Para siempre (vuelve)
TTITLE9=Pasión
TTITLE10=Pequeñita
TTITLE11=Preguntas
TTITLE12=Puede ser
TTITLE13=Sin mitad
TTITLE14=Son sueños
TTITLE15=Super heroe
TTITLE16=Traidora
TTITLE17=Tremendo
TTITLE18=Una salida
TTITLE19=Vamonos
TTITLE20=Vivir asi es morir de amor
EXTD=
EXTT0=
EXTT1=
EXTT2=
EXTT3=
EXTT4=
EXTT5=
EXTT6=
EXTT7=
EXTT8=
EXTT9=
EXTT10=
EXTT11=
EXTT12=
EXTT13=
EXTT14=
EXTT15=
EXTT16=
EXTT17=
EXTT18=
EXTT19=
EXTT20=
PLAYORDER=
